<svg xmlns="http://www.w3.org/2000/svg" viewBox="0 16.350000381469727 83.69999694824219 34.900001525878906" data-asc="1.025" width="83.69999694824219" height="34.900001525878906"><defs/><g fill="#77767b"><g transform="translate(0, 0)"><path d="M25.60 51.25L20.95 51.25L12.95 36.85L12.45 36.85L4.40 51.25L0 51.25L10.30 33.50L0.35 16.35L5.00 16.35L12.60 30.05L13.10 30.05L20.95 16.35L25.35 16.35L15.30 33.35L25.60 51.25ZM30.85 16.35L41.80 16.35Q47.85 16.35 51.15 20.52Q54.45 24.70 54.45 33.80Q54.45 42.90 51.15 47.07Q47.85 51.25 41.80 51.25L30.85 51.25L30.85 16.35M41.80 47.75Q45.55 47.75 47.85 45.15Q50.15 42.55 50.15 37.70L50.15 29.90Q50.15 25.05 47.85 22.45Q45.55 19.85 41.80 19.85L34.85 19.85L34.85 47.75L41.80 47.75ZM61.20 16.35L74.40 16.35Q78.35 16.35 80.47 18.57Q82.60 20.80 82.60 25.35Q82.60 27.45 82.10 28.82Q81.60 30.20 80.83 31.02Q80.05 31.85 79.10 32.25Q78.15 32.65 77.25 32.70L77.25 33.20Q78.15 33.20 79.28 33.57Q80.40 33.95 81.38 34.87Q82.35 35.80 83.03 37.32Q83.70 38.85 83.70 41.15Q83.70 45.95 81.50 48.60Q79.30 51.25 75.75 51.25L61.20 51.25L61.20 16.35M65.20 47.75L74.55 47.75Q76.95 47.75 78.17 46.47Q79.40 45.20 79.40 42.50L79.40 40.20Q79.40 37.50 78.17 36.22Q76.95 34.95 74.55 34.95L65.20 34.95L65.20 47.75M65.20 31.45L73.90 31.45Q76.05 31.45 77.20 30.32Q78.35 29.20 78.35 26.80L78.35 24.50Q78.35 22.10 77.20 20.97Q76.05 19.85 73.90 19.85L65.20 19.85L65.20 31.45Z"/></g></g></svg>